# xmcd
#
# Track frame offsets: 
#        150
#        18750
#        36295
#        47985
#        64888
#        79384
#        93315
#        106864
#        121760
#        140472
#        158097
#        174634
#        193121
#        209574
#        225239
#
# Disc length: 3221 seconds
#
# Revision: 1
# Processed by: cddbd v1.5.2PL0 Copyright (c) Steve Scherf et al.
# Submitted via: ExactAudioCopy v1.3
#
DISCID=c60c930f
DTITLE=Scott Bradlee and Postmodern Jukebox - Historical Misappropriatio
DTITLE=n
DYEAR=2014
DGENRE=Jazz
TTITLE0=Rude (feat. Von Smith)
TTITLE1=Womanizer
TTITLE2=Wiggle
TTITLE3=Maps
TTITLE4=Stay With Me
TTITLE5=Girls Just Wanna Have Fun
TTITLE6=I Really Don't Care (feat. Morgan James)
TTITLE7=No Diggity (feat. Ariana Savalas)
TTITLE8=Creep (feat. Karen Marie)
TTITLE9=Summer
TTITLE10=All About That Bass (feat. Kate Davis)
TTITLE11=Waterfalls
TTITLE12=Livin' on a Prayer
TTITLE13=Problem
TTITLE14=Break Free (feat. Morgan James)
EXTD=YEAR: 2014
EXTT0=
EXTT1=
EXTT2=
EXTT3=
EXTT4=
EXTT5=
EXTT6=
EXTT7=
EXTT8=
EXTT9=
EXTT10=
EXTT11=
EXTT12=
EXTT13=
EXTT14=
PLAYORDER=
